<?xml version="1.0" encoding="utf-8"?>
<!-- Generator: Adobe Illustrator 16.0.0, SVG Export Plug-In . SVG Version: 6.00 Build 0)  -->
<!DOCTYPE svg PUBLIC "-//W3C//DTD SVG 1.1//EN" "http://www.w3.org/Graphics/SVG/1.1/DTD/svg11.dtd">
<svg version="1.1" id="Layer_1" xmlns="http://www.w3.org/2000/svg" xmlns:xlink="http://www.w3.org/1999/xlink" x="0px" y="0px"
	 width="200px" height="213px" viewBox="0 0 200 213" enable-background="new 0 0 200 213" xml:space="preserve">
<g>
	<path fill="#FFFFFF" d="M135.217,97.074c0.126-0.062,0.259-0.133,0.391-0.039c0.228,0.159,0.445,0.333,0.667,0.501
		c1.562,1.184,3.226,2.189,5.067,2.88c1.209,0.453,2.453,0.769,3.732,0.958c1.207,0.179,2.422,0.276,3.633,0.407
		c1.25,0.136,2.477,0.377,3.635,0.891c1.464,0.647,2.928,1.296,4.394,1.938c0.583,0.255,0.69,0.35,1.134-0.271
		c0.632-0.886,1.11-1.851,1.39-2.905c0.062-0.234,0.103-0.477,0.122-0.718c0.034-0.419-0.13-0.719-0.519-0.934
		c-1.036-0.573-2.057-1.174-3.081-1.767c-0.843-0.489-1.693-0.969-2.521-1.482c-0.591-0.367-1.169-0.762-1.719-1.188
		c-0.521-0.405-1.015-0.85-1.489-1.31c-0.732-0.71-1.313-1.539-1.685-2.494c-0.375-0.966-0.986-1.753-1.733-2.452
		c-0.612-0.573-1.285-1.069-1.982-1.532c-0.755-0.5-1.516-0.991-2.283-1.472c-0.871-0.545-1.575-1.259-2.156-2.1
		c-0.236-0.343-0.459-0.699-0.67-1.059c-0.246-0.421-0.469-0.855-0.707-1.28c-0.102-0.182-0.217-0.355-0.324-0.534
		c-0.043-0.07-0.11-0.106-0.177-0.058c-0.046,0.033-0.089,0.11-0.086,0.165c0.026,0.381,0.019,0.772,0.109,1.139
		c0.126,0.508,0.041,0.966-0.178,1.416c-0.123,0.25-0.255,0.496-0.394,0.737c-0.193,0.337-0.45,0.606-0.798,0.805
		c-1.712,0.979-3.144,2.297-4.471,3.739c-1.11,1.206-2.134,2.484-3.146,3.771c-1.313,1.67-2.591,3.372-3.954,5
		c-4.044,4.833-8.934,8.562-14.711,11.105c-0.381,0.167-0.771,0.312-1.188,0.479c-0.026-0.136-0.084-0.243-0.059-0.324
		c0.085-0.265,0.204-0.518,0.304-0.777c0.958-2.526,0.593-4.854-1.076-6.972c-0.498-0.633-1.095-1.169-1.741-1.649
		c-0.25-0.186-0.499-0.373-0.728-0.545c-0.03-0.276,0.125-0.426,0.269-0.574c0.878-0.906,1.593-1.937,2.287-2.981
		c1.809-2.72,3.122-5.665,3.975-8.817c0.073-0.269,0.144-0.538,0.229-0.802c0.045-0.137,0.146-0.231,0.297-0.262
		c0.375-0.077,0.746-0.175,1.124-0.233c0.344-0.052,0.629-0.296,1.027-0.286c0.069,0.097,0.161,0.199,0.226,0.316
		c0.811,1.472,1.981,2.591,3.38,3.493c0.909,0.587,1.877,1.063,2.873,1.484c1.314,0.557,2.669,1.007,4.021,1.459
		c0.396,0.132,0.788,0.276,1.188,0.392c0.124,0.036,0.272,0.009,0.404-0.018c0.048-0.01,0.1-0.099,0.111-0.159
		c0.013-0.059-0.001-0.162-0.04-0.186c-0.235-0.146-0.479-0.281-0.725-0.41c-1.547-0.812-3.003-1.761-4.345-2.882
		c-1.158-0.967-2.169-2.064-2.981-3.339c-0.355-0.558-0.718-1.112-1.066-1.674c-0.811-1.309-1.719-2.537-2.888-3.556
		c-0.076-0.066-0.122-0.167-0.196-0.271c0.166-0.708,0.441-1.381,0.78-2.029c0.131-0.25,0.304-0.475,0.555-0.611
		c0.444-0.243,0.738-0.629,1.022-1.027c0.143-0.198,0.278-0.401,0.412-0.605c0.251-0.384,0.523-0.743,0.987-0.811
		c0.014-0.13,0.048-0.207,0.023-0.257c-0.46-0.977-0.95-1.938-1.526-2.853c-0.335-0.533-0.709-1.034-1.159-1.477
		c-0.301-0.295-0.627-0.555-1.003-0.744c-0.311-0.157-0.631-0.291-0.985-0.326c-0.312-0.031-0.622-0.082-0.933-0.12
		c-0.735-0.091-1.463-0.028-2.179,0.146c-0.701,0.17-1.271,0.549-1.695,1.141c-0.286,0.4-0.501,0.838-0.671,1.295
		c-0.276,0.751-0.548,1.505-0.781,2.271c-0.141,0.464-0.199,0.953-0.305,1.428c-0.091,0.407-0.189,0.812-0.3,1.214
		c-0.061,0.221-0.273,0.348-0.478,0.306c-2.023-0.408-4.071-0.547-6.13-0.538c-1.219,0.006-2.439,0.016-3.658,0.049
		c-1.639,0.043-3.277,0.029-4.91-0.087c-2.272-0.162-4.479-0.62-6.545-1.629c-1.099-0.538-2.128-1.188-3.112-1.909
		c-0.911-0.669-1.651-1.493-2.181-2.498c-0.081-0.153-0.178-0.298-0.274-0.442c-0.015-0.023-0.075-0.043-0.091-0.032
		c-0.047,0.032-0.112,0.08-0.115,0.125c-0.007,0.136,0.003,0.276,0.025,0.412c0.01,0.065,0.058,0.126,0.095,0.184
		c1.059,1.639,2.118,3.277,3.371,4.779c1.648,1.975,3.608,3.572,5.847,4.834c1.826,1.029,3.751,1.833,5.737,2.489
		c0.925,0.306,1.864,0.567,2.796,0.849c0.132,0.04,0.275,0.064,0.391,0.133c0.075,0.044,0.16,0.163,0.152,0.238
		c-0.018,0.169-0.083,0.336-0.144,0.498c-0.57,1.542-0.918,3.136-1.169,4.757c-0.331,2.141-0.454,4.294-0.444,6.457
		c0.005,1.22,0.015,2.439,0.067,3.657c0.059,1.357,0.199,2.708,0.361,4.058c0.158,1.314,0.361,2.62,0.61,3.92
		c0.256,1.336,0.604,2.646,0.977,3.952c0.047,0.165,0.077,0.336,0.095,0.507c0.005,0.05-0.048,0.135-0.095,0.154
		c-0.094,0.039-0.201,0.059-0.303,0.061c-1.637,0.021-3.271,0.048-4.905-0.14c-1.351-0.154-2.686-0.386-4.024-0.612
		c-1.51-0.255-3.028-0.454-4.563-0.52c-1.778-0.076-3.554-0.076-5.329,0.032c-1.006,0.062-2.01,0.186-3.011,0.313
		c-1.277,0.162-2.542,0.398-3.803,0.668c-3.208,0.687-6.317,1.681-9.359,2.899c-4.605,1.846-8.955,4.18-13.112,6.879
		c-3.659,2.374-7.135,4.99-10.381,7.906c-0.104,0.093-0.211,0.185-0.329,0.256c-0.045,0.026-0.126,0.003-0.188-0.013
		c-0.019-0.005-0.037-0.063-0.033-0.095c0.059-0.482,0.111-0.967,0.183-1.447c0.337-2.272,0.68-4.545,1.021-6.817
		c0.016-0.103,0.031-0.206,0.05-0.309c0.058-0.321,0.214-0.566,0.477-0.777c2.2-1.77,4.465-3.45,6.837-4.982
		c3.609-2.331,7.399-4.306,11.428-5.812c2.841-1.061,5.752-1.87,8.733-2.439c1.712-0.326,3.436-0.563,5.166-0.742
		c1.35-0.139,2.709-0.229,4.066-0.25c2.264-0.037,4.529-0.01,6.794,0.006c0.626,0.004,1.252,0.06,1.878,0.095
		c2.364,0.135,4.729,0.271,7.093,0.405c0.035,0.002,0.069-0.008,0.104-0.009c0.077-0.003,0.208-0.139,0.197-0.212
		c-0.018-0.136-0.022-0.275-0.059-0.407c-0.511-1.882-0.939-3.784-1.271-5.705c-0.254-1.476-0.441-2.96-0.575-4.453
		c-0.131-1.462-0.176-2.923-0.123-4.385c0.074-2.023,0.298-4.028,0.951-5.962c0.033-0.097,0.049-0.204,0.048-0.306
		c0-0.063-0.029-0.155-0.075-0.185c-0.234-0.149-0.476-0.289-0.721-0.42c-1.415-0.754-2.791-1.573-4.119-2.472
		c-2.502-1.694-4.684-3.729-6.507-6.141c-0.546-0.722-1.06-1.468-1.592-2.201c-0.142-0.195-0.243-0.426-0.504-0.566
		c-0.074,0.106-0.165,0.208-0.224,0.326c-0.14,0.28-0.257,0.57-0.398,0.849c-0.045,0.089-0.135,0.156-0.205,0.233
		c-0.082,0.089-0.304,0.075-0.376-0.019c-0.307-0.396-0.475-0.849-0.528-1.342c-0.064-0.596-0.029-1.182,0.194-1.748
		c0.089-0.224,0.155-0.458,0.241-0.714c-0.104-0.248-0.21-0.503-0.32-0.757c-0.373-0.866-0.642-1.765-0.855-2.683
		c-0.066-0.283-0.049-0.547,0.05-0.818c0.192-0.529,0.461-1.013,0.807-1.456c0.297-0.381,0.675-0.599,1.17-0.566
		c0.417,0.028,0.833,0.067,1.249,0.1c0.234,0.019,0.395-0.081,0.482-0.311c0.099-0.26,0.191-0.523,0.279-0.787
		c4.443-13.269,8.887-26.538,13.329-39.806c1.912-5.71,3.823-11.421,5.733-17.133c0.122-0.363,0.227-0.731,0.339-1.097
		c0.114-0.372,0.126-0.753,0.115-1.138c-0.013-0.508-0.412-1.087-1.002-1.165c-0.792-0.104-1.579-0.262-2.366-0.403
		c-0.135-0.024-0.276-0.057-0.393-0.124c-0.076-0.044-0.171-0.168-0.158-0.238c0.069-0.374,0.155-0.747,0.266-1.11
		c0.051-0.167,0.19-0.3,0.385-0.31c0.496-0.023,0.951-0.2,1.413-0.352c0.165-0.054,0.336-0.095,0.496-0.162
		c0.471-0.195,0.951-0.186,1.437-0.083c0.885,0.187,1.77,0.375,2.655,0.559c1.329,0.274,2.659,0.545,3.987,0.818
		c0.102,0.021,0.213,0.036,0.298,0.088c0.081,0.052,0.173,0.14,0.193,0.228c0.164,0.721,0.014,1.379-0.444,1.961
		c-0.162,0.206-0.392,0.297-0.646,0.278c-0.348-0.025-0.694-0.065-1.038-0.122c-0.583-0.096-1.164-0.209-1.746-0.315
		c-0.034-0.006-0.068-0.01-0.103-0.017c-0.69-0.144-1.223,0.137-1.673,0.627c-0.239,0.259-0.409,0.565-0.539,0.89
		c-0.154,0.388-0.297,0.781-0.424,1.179c-1.962,6.133-3.929,12.265-5.879,18.401c-3.7,11.643-7.387,23.291-11.086,34.935
		c-0.759,2.389-1.529,4.774-2.329,7.148c-0.165,0.488-0.119,0.882,0.175,1.266c0.232,0.304,0.469,0.607,0.735,0.881
		c1.548,1.597,3.373,2.792,5.406,3.679c1.809,0.79,3.702,1.208,5.673,1.252c1.672,0.038,3.34-0.002,5.011-0.146
		c2.046-0.177,4.096-0.36,6.155-0.292c0.731,0.024,1.462,0.024,2.187,0.163c0.236,0.045,0.483,0.038,0.727,0.048
		c0.128,0.005,0.27-0.111,0.303-0.241c0.085-0.337,0.164-0.676,0.25-1.014c0.078-0.304,0.149-0.609,0.244-0.907
		c0.307-0.97,0.744-1.875,1.358-2.691c0.878-1.165,2.039-1.898,3.456-2.179c1.117-0.221,2.22-0.102,3.246,0.455
		c0.587,0.319,1.12,0.71,1.56,1.213c0.343,0.393,0.666,0.806,0.961,1.235c0.294,0.43,0.555,0.884,0.808,1.341
		c0.59,1.066,1.138,2.157,1.834,3.161c0.153,0.221,0.167,0.462,0.068,0.697c-0.286,0.68-0.688,1.291-1.155,1.856
		c-0.276,0.333-0.67,0.489-1.084,0.586c-0.338,0.079-0.681,0.145-1.02,0.224c-0.344,0.081-0.656,0.226-0.923,0.464
		c-0.104,0.092-0.146,0.273-0.08,0.374c0.038,0.058,0.075,0.118,0.116,0.173c1.286,1.735,2.581,3.463,3.857,5.206
		c0.518,0.708,1.104,1.341,1.772,1.908c1.896,1.606,3.958,2.959,6.19,4.053c0.187,0.092,0.378,0.175,0.574,0.246
		c0.139,0.05,0.276,0.014,0.385-0.091c0.175-0.169,0.344-0.345,0.518-0.516c0.696-0.683,1.384-1.375,2.094-2.044
		c1.143-1.077,2.363-2.059,3.66-2.945c0.172-0.118,0.339-0.243,0.478-0.341c0.173-0.296,0.108-0.582,0.105-0.853
		c-0.013-1.09,0.186-2.146,0.456-3.196c0.098-0.38,0.258-0.72,0.511-1.016c0.271-0.316,0.544-0.633,0.822-0.944
		c0.11-0.124,0.347-0.108,0.464,0.029c0.158,0.186,0.318,0.372,0.453,0.572c0.291,0.433,0.564,0.879,0.852,1.315
		c0.46,0.698,0.915,1.399,1.394,2.084c0.763,1.096,1.68,2.034,2.798,2.784c0.722,0.483,1.405,1.03,2.081,1.577
		c1.228,0.994,2.266,2.163,3.104,3.505c0.517,0.828,1.076,1.626,1.679,2.394c1.255,1.6,2.709,2.996,4.312,4.24
		c1.212,0.94,2.476,1.808,3.771,2.627c0.322,0.203,0.672,0.364,1.007,0.548c0.274,0.15,0.562,0.283,0.815,0.462
		c0.439,0.309,0.607,0.835,0.423,1.287c-0.078,0.193-0.146,0.391-0.235,0.579c-0.224,0.472-0.448,0.943-0.688,1.406
		c-0.128,0.246-0.27,0.49-0.438,0.709c-0.513,0.66-1.043,1.308-1.563,1.961c-0.229,0.288-0.529,0.45-0.892,0.484
		c-1.085,0.104-2.157,0.017-3.217-0.229c-0.201-0.047-0.393-0.141-0.583-0.225c-1.756-0.788-3.589-1.312-5.48-1.661
		c-1.162-0.214-2.328-0.418-3.476-0.713c-1.047-0.269-2.075-0.592-3.075-0.998c-0.603-0.245-1.157-0.176-1.703,0.12
		c-0.468,0.254-0.834,0.623-1.137,1.059c-0.341,0.491-0.587,1.027-0.777,1.59c-0.349,1.028-0.54,2.094-0.608,3.172
		c-0.091,1.427-0.053,2.851,0.105,4.277c0.352,3.159,1.039,6.248,1.855,9.312c0.412,1.546,0.898,3.073,1.334,4.613
		c0.211,0.748,0.557,1.423,0.996,2.058c0.576,0.832,1.217,1.612,1.88,2.375c0.112,0.13,0.215,0.272,0.303,0.421
		c0.019,0.03-0.037,0.149-0.08,0.163c-0.129,0.041-0.269,0.07-0.403,0.069c-0.731-0.007-1.463-0.031-2.195-0.035
		c-1.603-0.008-3.205-0.007-4.808-0.01c-0.14-0.001-0.279,0.003-0.418-0.01c-0.149-0.013-0.273-0.096-0.314-0.235
		c-0.108-0.366-0.208-0.736-0.29-1.109c-0.41-1.872-0.77-3.753-1.025-5.65c-0.238-1.76-0.451-3.523-0.507-5.303
		c-0.025-0.836-0.098-1.671-0.101-2.507c-0.007-1.951,0.082-3.897,0.299-5.84c0.21-1.873,0.551-3.718,1.058-5.533
		c0.423-1.514,0.978-2.976,1.702-4.37c0.064-0.124,0.142-0.244,0.181-0.376c0.028-0.092,0.014-0.202-0.006-0.3
		c-0.013-0.064-0.064-0.122-0.104-0.18c-0.671-0.976-1.339-1.953-2.015-2.926c-0.076-0.107-0.199-0.184-0.3-0.273L135.217,97.074z
		 M115.266,102.386c1.326-0.69,2.583-1.354,3.708-2.238c1.831-1.439,3.605-2.947,5.312-4.533c0.28-0.26,0.552-0.529,0.816-0.806
		c0.066-0.069,0.093-0.179,0.151-0.299c-0.849-0.428-1.749-0.691-2.595-1.084c-0.851-0.395-1.718-0.755-2.552-1.18
		c-0.866-0.441-1.705-0.936-2.548-1.419c-0.811-0.465-1.548-1.048-2.352-1.489c-0.193,0.112-0.276,0.264-0.354,0.418
		c-1.415,2.802-3.149,5.399-5.051,7.89c-0.084,0.11-0.164,0.224-0.243,0.338c-0.082,0.118-0.054,0.309,0.055,0.369
		c0.091,0.051,0.184,0.098,0.276,0.144c1.188,0.592,2.27,1.347,3.289,2.191c0.481,0.398,0.959,0.804,1.441,1.201
		C114.809,102.042,115.005,102.185,115.266,102.386z M77.75,66.916c0.004,0.94,0.282,1.638,0.68,2.297
		c0.065,0.108,0.245,0.177,0.362,0.14c0.099-0.031,0.199-0.059,0.292-0.101c1.069-0.491,0.977-0.254,0.583-1.404
		c-0.112-0.326-0.243-0.646-0.389-0.958c-0.102-0.217-0.228-0.428-0.376-0.615c-0.103-0.13-0.252-0.231-0.397-0.318
		c-0.24-0.143-0.516-0.05-0.587,0.203C77.835,66.457,77.784,66.763,77.75,66.916z"/>
	<path fill="#FFFFFF" d="M176.053,179.429c0.305,0.146,0.494,0.231,0.678,0.326c1.174,0.6,1.971,1.515,2.356,2.788
		c0.285,0.941,0.416,1.904,0.46,2.881c0.077,1.71-0.029,3.412-0.342,5.097c-0.18,0.966-0.508,1.878-0.991,2.736
		c-0.643,1.144-1.575,1.933-2.812,2.366c-0.594,0.208-1.197,0.37-1.828,0.403c-0.486,0.024-0.975,0.064-1.461,0.066
		c-2.578,0.007-5.156,0.005-7.734,0.003c-0.243,0-0.486-0.016-0.729-0.032c-0.181-0.013-0.306-0.152-0.317-0.349
		c-0.011-0.208-0.02-0.417-0.02-0.625c-0.002-9.338-0.002-18.674,0.001-28.011c0-0.242,0.026-0.485,0.059-0.726
		c0.008-0.055,0.079-0.114,0.136-0.146s0.132-0.042,0.199-0.045c0.174-0.009,0.348-0.012,0.522-0.012
		c2.753,0,5.505,0.004,8.257-0.001c0.735-0.002,1.46,0.066,2.179,0.214c0.583,0.119,1.143,0.301,1.678,0.561
		c1.05,0.511,1.804,1.299,2.227,2.386c0.162,0.421,0.311,0.855,0.389,1.297c0.128,0.719,0.234,1.444,0.229,2.18
		c-0.007,1.011,0.028,2.02-0.154,3.022c-0.12,0.66-0.352,1.274-0.674,1.854c-0.295,0.532-0.755,0.908-1.271,1.213
		C176.79,179.051,176.478,179.203,176.053,179.429z M169.782,186.344C169.782,186.344,169.782,186.344,169.782,186.344
		c-0.001,1.113-0.002,2.226,0.001,3.339c0,0.277,0.015,0.555,0.028,0.833c0.007,0.135,0.135,0.266,0.258,0.28
		c0.56,0.071,1.106,0.03,1.643-0.164c0.769-0.279,1.17-0.838,1.264-1.632c0.024-0.206,0.021-0.417,0.021-0.625
		c0.002-0.765,0.002-1.531,0.001-2.296c-0.001-0.557-0.007-1.113-0.008-1.67c-0.001-0.459-0.094-0.901-0.278-1.317
		c-0.208-0.468-0.561-0.783-1.073-0.909c-0.515-0.127-1.031-0.136-1.553-0.076c-0.126,0.014-0.259,0.146-0.271,0.274
		c-0.013,0.138-0.029,0.276-0.029,0.414C169.781,183.979,169.782,185.161,169.782,186.344z M169.782,173.981
		c0,0.906-0.002,1.812,0.003,2.718c0.001,0.173,0.012,0.35,0.049,0.518c0.021,0.094,0.101,0.187,0.219,0.188
		c0.418,0.009,0.837,0.043,1.251,0.01c0.532-0.041,0.895-0.337,1.075-0.854c0.116-0.334,0.185-0.672,0.186-1.022
		c0.004-1.115,0.006-2.23,0.004-3.346c0-0.139-0.007-0.28-0.038-0.415c-0.101-0.435-0.333-0.757-0.781-0.895
		c-0.581-0.18-1.169-0.149-1.758-0.068c-0.054,0.008-0.127,0.087-0.14,0.144c-0.037,0.168-0.064,0.342-0.066,0.515
		C169.779,172.31,169.783,173.146,169.782,173.981z"/>
	<path fill="#FFFFFF" d="M92.476,180.913c0,2.402-0.006,4.806,0.003,7.208c0.004,1.089-0.14,2.152-0.451,3.193
		c-0.19,0.637-0.464,1.236-0.797,1.811c-0.726,1.255-1.777,2.128-3.114,2.665c-0.946,0.381-1.941,0.555-2.952,0.603
		c-1.009,0.046-2.017,0.022-3.019-0.156c-0.865-0.155-1.685-0.421-2.453-0.847c-0.806-0.447-1.467-1.053-1.99-1.812
		c-0.642-0.931-1.055-1.956-1.295-3.057c-0.164-0.751-0.242-1.511-0.24-2.28c0.003-1.253-0.001-2.507-0.001-3.761
		c0-3.518,0-7.034,0-10.552c0-0.872,0.022-1.74,0.233-2.595c0.151-0.61,0.342-1.204,0.625-1.767c0.647-1.29,1.617-2.253,2.921-2.874
		c0.792-0.377,1.628-0.606,2.493-0.733c0.413-0.06,0.831-0.091,1.247-0.132c0.138-0.014,0.278-0.028,0.417-0.025
		c1.15,0.035,2.294,0.127,3.406,0.451c2.626,0.763,4.162,2.525,4.751,5.168c0.176,0.79,0.216,1.585,0.216,2.387
		C92.476,176.178,92.476,178.545,92.476,180.913C92.476,180.913,92.476,180.913,92.476,180.913z M85.821,181.066
		c0.002,0,0.005,0,0.008,0c0-2.156,0.001-4.313-0.001-6.471c0-0.348-0.013-0.695-0.021-1.043c-0.007-0.354-0.101-0.695-0.244-1.008
		c-0.214-0.469-0.57-0.785-1.126-0.788c-0.139,0-0.279,0-0.417,0.015c-0.328,0.037-0.596,0.188-0.788,0.457
		c-0.225,0.314-0.405,0.651-0.443,1.044c-0.041,0.414-0.098,0.83-0.098,1.245c-0.007,4.244-0.009,8.488,0.002,12.732
		c0.001,0.555,0.077,1.109,0.131,1.663c0.038,0.39,0.21,0.731,0.412,1.06c0.112,0.183,0.266,0.326,0.464,0.405
		c0.294,0.118,0.596,0.169,0.917,0.098c0.326-0.071,0.576-0.228,0.749-0.513c0.238-0.395,0.384-0.821,0.414-1.279
		c0.029-0.45,0.039-0.903,0.041-1.355C85.823,185.241,85.821,183.154,85.821,181.066z"/>
	<path fill="#FFFFFF" d="M56.109,180.971c0,2.333,0,4.667,0,7c0,0.872-0.042,1.738-0.238,2.595
		c-0.228,0.993-0.589,1.928-1.139,2.787c-0.738,1.154-1.755,1.961-3.028,2.459c-0.918,0.358-1.877,0.527-2.852,0.578
		c-1.008,0.052-2.016,0.03-3.019-0.146c-0.622-0.109-1.225-0.268-1.803-0.509c-1.189-0.497-2.138-1.286-2.836-2.377
		c-0.57-0.892-0.947-1.857-1.16-2.89c-0.169-0.821-0.235-1.651-0.232-2.491c0.008-2.995,0.002-5.989,0.002-8.984
		c0-1.812,0.006-3.622,0-5.433c-0.002-0.912,0.115-1.805,0.362-2.681c0.708-2.502,2.35-4.059,4.845-4.697
		c1.32-0.338,2.667-0.472,4.038-0.301c0.761,0.095,1.515,0.195,2.251,0.421c2.496,0.767,3.961,2.471,4.563,4.972
		c0.18,0.749,0.246,1.51,0.245,2.278c-0.002,1.707,0.001,3.413,0.002,5.119c0,0.767,0,1.532,0,2.299
		C56.11,180.971,56.11,180.971,56.109,180.971z M49.459,181.07c0.002,0,0.004,0,0.007,0c0-2.156,0.001-4.312-0.001-6.47
		c0-0.348-0.014-0.696-0.021-1.043c-0.005-0.318-0.093-0.618-0.201-0.913c-0.215-0.584-0.651-0.889-1.266-0.89
		c-0.104,0-0.208,0.004-0.312,0.015c-0.33,0.035-0.593,0.192-0.787,0.458c-0.248,0.343-0.433,0.714-0.462,1.146
		c-0.028,0.416-0.076,0.832-0.076,1.249c-0.005,4.174-0.007,8.348,0.002,12.521c0.001,0.556,0.063,1.11,0.106,1.665
		c0.033,0.426,0.212,0.804,0.43,1.162c0.111,0.182,0.263,0.327,0.461,0.407c0.26,0.104,0.529,0.161,0.815,0.117
		c0.405-0.062,0.712-0.246,0.905-0.62c0.194-0.375,0.338-0.764,0.358-1.188c0.022-0.451,0.038-0.903,0.039-1.355
		C49.461,185.244,49.459,183.157,49.459,181.07z"/>
	<path fill="#FFFFFF" d="M142.861,177.964c0-3.481-0.001-6.963,0.001-10.445c0-0.347,0.01-0.695,0.022-1.042
		c0.007-0.182,0.146-0.303,0.344-0.314c0.104-0.006,0.209-0.011,0.313-0.011c1.671-0.002,3.342-0.002,5.013-0.002
		c0.104,0,0.209,0.004,0.313,0.009c0.298,0.015,0.407,0.135,0.416,0.471c0.008,0.279,0.008,0.558,0.008,0.836
		c0.001,4.422,0,8.844,0,13.265c0.001,2.333,0,4.666,0.002,6.998c0.001,0.383,0.016,0.766,0.031,1.147
		c0.015,0.353,0.104,0.691,0.245,1.011c0.365,0.819,1.392,1.149,2.203,0.601c0.111-0.075,0.205-0.188,0.282-0.302
		c0.237-0.353,0.392-0.74,0.412-1.167c0.023-0.487,0.04-0.975,0.04-1.461c0.002-6.686,0.001-13.37,0.003-20.055
		c0-0.347,0.013-0.694,0.024-1.043c0.005-0.134,0.133-0.269,0.258-0.279c0.139-0.012,0.276-0.028,0.415-0.028
		c1.671-0.003,3.342-0.003,5.014-0.001c0.139,0,0.277,0.013,0.416,0.022c0.136,0.01,0.271,0.133,0.276,0.259
		c0.014,0.243,0.03,0.486,0.03,0.729c0.001,7.033-0.002,14.066,0.003,21.099c0.002,1.121-0.112,2.226-0.434,3.3
		c-0.129,0.432-0.285,0.861-0.482,1.265c-0.703,1.438-1.8,2.451-3.311,3.014c-0.89,0.331-1.812,0.506-2.75,0.562
		c-1.147,0.067-2.295,0.05-3.434-0.17c-0.584-0.112-1.154-0.267-1.699-0.494c-1.445-0.604-2.483-1.638-3.138-3.059
		c-0.502-1.089-0.735-2.245-0.81-3.435c-0.033-0.52-0.027-1.043-0.027-1.565C142.86,184.439,142.861,181.202,142.861,177.964z"/>
	<path fill="#FFFFFF" d="M106.301,181.398c0-2.3,0.001-4.6-0.001-6.898c0-1.12,0.144-2.223,0.413-3.309
		c0.158-0.645,0.394-1.263,0.705-1.85c0.697-1.313,1.734-2.248,3.123-2.79c0.884-0.345,1.795-0.565,2.742-0.6
		c0.729-0.025,1.464-0.035,2.193,0c1.266,0.062,2.471,0.386,3.606,0.954c1.36,0.68,2.372,1.693,2.955,3.11
		c0.294,0.714,0.492,1.459,0.502,2.23c0.022,1.811,0.01,3.622,0.009,5.434c0,0.068-0.011,0.143-0.041,0.201
		s-0.086,0.133-0.141,0.144c-0.204,0.037-0.412,0.07-0.618,0.071c-1.638,0.006-3.274,0.005-4.912,0.001
		c-0.173,0-0.348-0.021-0.52-0.039c-0.121-0.012-0.248-0.149-0.259-0.285c-0.017-0.207-0.035-0.416-0.036-0.624
		c-0.005-0.732,0.01-1.464-0.008-2.195c-0.011-0.486-0.062-0.972-0.102-1.457c-0.027-0.318-0.145-0.614-0.312-0.881
		c-0.254-0.407-0.615-0.66-1.117-0.652c-0.174,0.002-0.352-0.001-0.52,0.036c-0.356,0.076-0.654,0.262-0.794,0.611
		c-0.102,0.257-0.185,0.527-0.221,0.801c-0.046,0.343-0.046,0.694-0.046,1.042c-0.003,4.494-0.002,8.988-0.001,13.482
		c0,0.279,0.009,0.558,0.021,0.836c0.021,0.428,0.167,0.815,0.387,1.178c0.568,0.938,1.71,0.839,2.285,0.104
		c0.174-0.223,0.295-0.477,0.321-0.761c0.04-0.45,0.092-0.901,0.098-1.354c0.013-1.149,0.002-2.299,0.007-3.448
		c0.001-0.312,0.021-0.626,0.038-0.938c0.008-0.134,0.137-0.274,0.256-0.288c0.173-0.018,0.346-0.042,0.52-0.042
		c1.707-0.003,3.414-0.003,5.121,0.001c0.172,0,0.349,0.018,0.513,0.063c0.085,0.024,0.185,0.117,0.214,0.201
		c0.043,0.128,0.041,0.274,0.041,0.413c0.002,1.707,0.012,3.414-0.004,5.121c-0.008,0.908-0.126,1.807-0.381,2.682
		c-0.482,1.657-1.481,2.894-3.023,3.686c-0.497,0.256-1.011,0.469-1.551,0.612c-1.879,0.497-3.776,0.602-5.688,0.214
		c-1.215-0.246-2.309-0.763-3.27-1.552c-1.234-1.014-1.973-2.324-2.297-3.876c-0.15-0.718-0.218-1.443-0.216-2.179
		C106.305,186.205,106.3,183.802,106.301,181.398C106.3,181.398,106.3,181.398,106.301,181.398z"/>
	<path fill="#FFFFFF" d="M20.982,181.094c0-4.492,0-8.984,0-13.477c0-0.313-0.002-0.627,0.005-0.94
		c0.01-0.409,0.102-0.507,0.473-0.521c0.104-0.004,0.208-0.006,0.313-0.006c2.751,0,5.502,0.003,8.253,0.001
		c0.878-0.002,1.735,0.122,2.567,0.396c1.682,0.554,2.885,1.639,3.59,3.266c0.278,0.642,0.479,1.311,0.598,1.996
		c0.131,0.753,0.263,1.511,0.265,2.28c0.002,0.836,0.017,1.672-0.008,2.507c-0.03,1.011-0.168,2.012-0.415,2.993
		c-0.187,0.747-0.478,1.454-0.873,2.116c-0.497,0.832-1.186,1.449-2.067,1.853c-0.605,0.275-1.236,0.452-1.896,0.553
		c-1.004,0.154-2.013,0.139-3.022,0.142c-1.405,0.003-1.297-0.107-1.299,1.296c-0.002,3.064,0,6.129-0.002,9.193
		c0,0.348-0.017,0.695-0.031,1.043c-0.005,0.125-0.143,0.255-0.271,0.272c-0.069,0.009-0.138,0.028-0.206,0.028
		c-1.811,0.002-3.622,0.004-5.432,0.002c-0.103,0-0.216-0.012-0.304-0.057c-0.083-0.043-0.188-0.133-0.196-0.211
		c-0.034-0.311-0.042-0.625-0.043-0.938c-0.003-2.054-0.001-4.108-0.001-6.163C20.982,186.178,20.982,183.636,20.982,181.094z
		 M27.467,175.192c0,0.94,0.004,1.882-0.001,2.822c-0.005,0.832,0.101,0.878,0.911,0.831c0.172-0.011,0.342-0.066,0.515-0.081
		c0.674-0.057,1.067-0.456,1.299-1.053c0.076-0.194,0.163-0.39,0.195-0.593c0.198-1.247,0.228-2.497-0.003-3.744
		c-0.05-0.271-0.148-0.537-0.259-0.791c-0.126-0.293-0.336-0.532-0.62-0.688c-0.571-0.313-1.181-0.405-1.816-0.268
		c-0.075,0.017-0.165,0.139-0.18,0.223c-0.036,0.204-0.041,0.415-0.041,0.623C27.465,173.381,27.467,174.287,27.467,175.192z"/>
	<path fill="#FFFFFF" d="M60.15,181.084c0-4.528-0.001-9.057,0.001-13.585c0-0.347,0.017-0.695,0.032-1.042
		c0.007-0.141,0.133-0.268,0.262-0.278c0.138-0.013,0.276-0.027,0.416-0.027c1.741-0.002,3.483-0.002,5.225,0.001
		c0.139,0,0.283-0.003,0.414,0.034c0.086,0.025,0.178,0.106,0.22,0.187c0.045,0.087,0.045,0.202,0.047,0.306
		c0.007,0.348,0.007,0.696,0.007,1.045c0,7.001-0.003,14.002,0.002,21.004c0.001,1.7-0.19,1.505,1.495,1.516
		c1.393,0.008,2.787,0,4.18,0.003c0.278,0.001,0.556,0.014,0.834,0.03c0.164,0.01,0.308,0.176,0.317,0.354
		c0.008,0.139,0.014,0.278,0.014,0.418c0,1.428,0,2.856,0,4.284c0,0.104-0.002,0.209-0.007,0.313
		c-0.013,0.279-0.163,0.422-0.47,0.437c-0.244,0.011-0.487,0.014-0.731,0.014c-0.871,0.002-1.741,0.001-2.612,0.001
		c-2.751,0-5.503,0.001-8.255-0.001c-0.313,0-0.627,0.001-0.94-0.019c-0.261-0.017-0.432-0.11-0.44-0.469
		c-0.008-0.348-0.01-0.696-0.01-1.044C60.15,190.071,60.15,185.577,60.15,181.084z"/>
	<path fill="#FFFFFF" d="M126.562,180.975c0-4.489,0-8.979,0.002-13.469c0-0.348,0.012-0.695,0.023-1.043
		c0.006-0.139,0.129-0.272,0.253-0.283c0.139-0.011,0.276-0.027,0.415-0.027c1.74-0.003,3.481-0.004,5.221,0
		c0.173,0.001,0.348,0.022,0.517,0.055c0.056,0.011,0.113,0.08,0.145,0.138c0.032,0.058,0.044,0.133,0.046,0.2
		c0.007,0.348,0.011,0.696,0.011,1.043c0.001,7.066,0,14.132,0.002,21.197c0,0.382,0.015,0.765,0.026,1.146
		c0.005,0.131,0.137,0.271,0.259,0.276c0.312,0.015,0.625,0.034,0.938,0.034c1.462,0.004,2.924,0.001,4.386,0.004
		c0.278,0,0.556,0.013,0.834,0.024c0.132,0.006,0.275,0.133,0.292,0.254c0.019,0.137,0.044,0.274,0.044,0.412
		c0.003,1.496,0.003,2.993-0.001,4.489c0,0.138-0.007,0.283-0.052,0.411c-0.029,0.083-0.126,0.182-0.207,0.199
		c-0.202,0.043-0.413,0.055-0.621,0.057c-0.765,0.007-1.531,0.004-2.297,0.004c-2.924,0-5.848,0-8.771-0.001
		c-0.347,0-0.695-0.006-1.043-0.02c-0.255-0.01-0.395-0.145-0.403-0.38c-0.011-0.312-0.016-0.626-0.017-0.938
		C126.562,190.163,126.562,185.569,126.562,180.975z"/>
	<path fill="#FFFFFF" d="M123.978,155.646c0.097-0.408,0.052-0.793,0.052-1.174c0.004-5.052-0.004-10.104,0.006-15.155
		c0.003-1.68-0.224-1.497,1.499-1.509c0.312-0.002,0.625,0.021,0.938,0.039c0.123,0.008,0.271,0.155,0.274,0.271
		c0.012,0.348,0.025,0.696,0.025,1.044c0.001,4.634,0.001,9.268,0.001,13.901c0,2.055,0.002,4.11-0.002,6.166
		c0,0.312-0.024,0.625-0.041,0.937c-0.007,0.121-0.108,0.17-0.192,0.228c-0.026,0.018-0.066,0.02-0.102,0.02
		c-0.766,0.006-1.531,0.011-2.298,0.013c-0.146,0.001-0.273-0.064-0.364-0.174c-0.2-0.241-0.394-0.487-0.582-0.737
		c-4.005-5.312-8.01-10.626-12.016-15.938c-0.272-0.361-0.552-0.716-0.837-1.067c-0.032-0.04-0.128-0.059-0.18-0.042
		c-0.049,0.017-0.105,0.089-0.112,0.144c-0.02,0.172-0.024,0.347-0.025,0.52c-0.003,0.488-0.001,0.976-0.001,1.464
		c0,4.877,0.002,9.755-0.001,14.633c-0.001,1.284,0.104,1.211-1.164,1.209c-0.418-0.001-0.835-0.013-1.252-0.024
		c-0.131-0.004-0.273-0.135-0.291-0.255c-0.016-0.103-0.038-0.205-0.042-0.309c-0.007-0.243-0.007-0.487-0.007-0.731
		c0-6.654-0.001-13.309,0-19.963c0.001-0.313,0.008-0.627,0.021-0.94c0.01-0.229,0.161-0.382,0.403-0.386
		c0.731-0.009,1.462-0.01,2.193-0.006c0.224,0.001,0.395,0.12,0.528,0.294c0.17,0.221,0.34,0.441,0.509,0.663
		c4.044,5.327,8.088,10.654,12.134,15.98c0.21,0.277,0.42,0.556,0.648,0.817C123.749,155.635,123.877,155.624,123.978,155.646z"/>
	<path fill="#FFFFFF" d="M65.586,149.089c0-3.343-0.001-6.685,0.001-10.027c0-0.312,0.018-0.625,0.034-0.938
		c0.006-0.119,0.154-0.259,0.275-0.275c0.103-0.014,0.206-0.034,0.31-0.037c0.279-0.006,0.557-0.005,0.836-0.005
		c1.811-0.001,3.621,0.006,5.432-0.003c1.115-0.006,2.227,0.024,3.339,0.116c1.221,0.101,2.405,0.355,3.551,0.79
		c2.582,0.981,4.266,2.81,5.096,5.43c0.263,0.83,0.406,1.686,0.508,2.555c0.176,1.5,0.102,2.992-0.068,4.48
		c-0.146,1.282-0.458,2.53-0.984,3.72c-1.028,2.322-2.735,3.906-5.126,4.756c-0.921,0.327-1.868,0.529-2.841,0.644
		c-1.042,0.122-2.083,0.146-3.127,0.145c-1.985-0.004-3.969,0-5.954-0.001c-0.278-0.001-0.557-0.002-0.835-0.013
		c-0.284-0.01-0.422-0.16-0.433-0.473c-0.011-0.313-0.011-0.627-0.012-0.94C65.585,155.705,65.586,152.396,65.586,149.089z
		 M68.556,149.131c0,2.576-0.001,5.152,0.002,7.729c0,0.312,0.016,0.626,0.053,0.936c0.009,0.076,0.118,0.164,0.202,0.203
		c0.09,0.041,0.204,0.039,0.308,0.039c1.811-0.002,3.621-0.009,5.431-0.008c0.667,0.001,1.32-0.105,1.96-0.266
		c2.199-0.55,3.79-1.84,4.696-3.936c0.151-0.35,0.291-0.709,0.395-1.076c0.6-2.109,0.656-4.256,0.378-6.415
		c-0.084-0.654-0.272-1.291-0.521-1.908c-0.702-1.746-1.927-2.952-3.685-3.612c-1.051-0.395-2.14-0.613-3.264-0.621
		c-1.775-0.013-3.55-0.008-5.326-0.008c-0.104,0-0.208,0.013-0.312,0.021c-0.133,0.011-0.273,0.134-0.278,0.258
		c-0.016,0.347-0.037,0.694-0.037,1.042C68.555,144.048,68.556,146.59,68.556,149.131z"/>
	<path fill="#FFFFFF" d="M6.825,148.469c0.222-0.205,0.504-0.225,0.774-0.276c0.926-0.177,1.825-0.438,2.686-0.827
		c0.639-0.289,1.23-0.649,1.737-1.141c0.851-0.823,1.23-1.838,1.205-3.009c-0.005-0.242-0.053-0.484-0.1-0.723
		c-0.228-1.154-0.964-1.815-2.076-2.086c-0.474-0.115-0.954-0.192-1.447-0.19c-1.916,0.007-3.832,0.002-5.748,0.004
		c-0.139,0-0.284,0-0.413,0.04c-0.085,0.025-0.173,0.111-0.215,0.193c-0.045,0.088-0.049,0.201-0.051,0.305
		c-0.007,0.313-0.007,0.627-0.007,0.94c0,5.748,0,11.496,0,17.244c0,0.348,0,0.696-0.01,1.044c-0.008,0.308-0.137,0.438-0.456,0.439
		c-0.696,0.004-1.392-0.003-2.089-0.011c-0.177-0.002-0.328-0.155-0.336-0.332c-0.012-0.278-0.02-0.557-0.02-0.836
		c-0.001-6.758-0.001-13.516,0-20.274c0-0.278,0.012-0.557,0.022-0.835c0.004-0.11,0.156-0.28,0.259-0.289
		c0.208-0.018,0.416-0.041,0.624-0.042c2.892-0.002,5.783-0.012,8.674,0.006c0.939,0.006,1.881,0.063,2.792,0.332
		c0.333,0.098,0.664,0.211,0.98,0.352c1.409,0.627,2.24,1.718,2.554,3.218c0.172,0.825,0.229,1.649,0.076,2.489
		c-0.213,1.175-0.767,2.154-1.609,2.982c-0.55,0.541-1.176,0.979-1.844,1.362c-0.727,0.416-1.497,0.739-2.276,1.042
		c-0.095,0.037-0.194,0.081-0.271,0.146c-0.043,0.036-0.081,0.144-0.059,0.181c0.181,0.296,0.366,0.591,0.57,0.872
		c2.092,2.871,4.188,5.739,6.28,8.61c0.183,0.251,0.342,0.521,0.509,0.783c0.048,0.076-0.045,0.218-0.143,0.228
		c-0.034,0.004-0.068,0.018-0.103,0.018c-1.01,0.002-2.021,0-3.031,0.005c-0.232,0.002-0.395-0.111-0.53-0.278
		c-0.087-0.108-0.162-0.228-0.242-0.341c-2.09-2.958-4.176-5.919-6.276-8.87c-0.314-0.441-0.532-0.885-0.465-1.442
		C6.793,149.159,6.707,148.805,6.825,148.469z"/>
	<path fill="#FFFFFF" d="M20.764,149.025c0-3.275,0-6.55,0-9.824c0-0.348,0.008-0.696,0.02-1.044
		c0.005-0.172,0.154-0.311,0.345-0.321c0.278-0.016,0.556-0.028,0.834-0.028c4.145-0.001,8.291-0.002,12.436,0.001
		c0.278,0,0.556,0.021,0.833,0.039c0.131,0.008,0.284,0.146,0.286,0.262c0.005,0.59,0.007,1.181,0.004,1.771
		c0,0.131-0.14,0.263-0.266,0.274c-0.104,0.009-0.208,0.023-0.312,0.024c-0.279,0.005-0.557,0.004-0.836,0.004
		c-3.031,0-6.061-0.001-9.092,0.001c-0.348,0.001-0.695,0.019-1.042,0.032c-0.125,0.005-0.252,0.145-0.265,0.273
		c-0.006,0.069-0.021,0.139-0.021,0.207c-0.001,2.195-0.001,4.39,0.002,6.584c0,0.102,0.018,0.21,0.055,0.304
		c0.022,0.057,0.09,0.114,0.149,0.133c0.097,0.032,0.205,0.045,0.308,0.047c0.313,0.007,0.627,0.007,0.94,0.007
		c2.822,0,5.644,0,8.465,0c0.278,0,0.557-0.002,0.836,0.005c0.411,0.009,0.51,0.099,0.522,0.472
		c0.007,0.209,0.009,0.418,0.007,0.627c-0.015,1.382,0.16,1.297-1.292,1.298c-2.892,0.001-5.783-0.001-8.674,0.002
		c-0.347,0.001-0.694,0.023-1.041,0.042c-0.121,0.007-0.249,0.153-0.257,0.284c-0.011,0.173-0.025,0.347-0.025,0.521
		c-0.002,2.056-0.002,4.11,0,6.166c0,0.174,0.012,0.348,0.023,0.521c0.01,0.166,0.166,0.312,0.347,0.318
		c0.313,0.009,0.627,0.016,0.94,0.016c3.135,0.001,6.271,0.001,9.406,0.001c0.279,0,0.557-0.003,0.836,0.005
		c0.445,0.012,0.537,0.11,0.551,0.563c0.001,0.069,0.003,0.14,0.002,0.209c-0.032,1.843,0.276,1.609-1.593,1.614
		c-4.076,0.009-8.151,0.004-12.227,0.003c-1.28-0.001-1.206,0.086-1.206-1.172C20.763,155.853,20.764,152.438,20.764,149.025z"/>
	<path fill="#FFFFFF" d="M88.552,149.123c0-3.309,0-6.616,0-9.925c0-0.313,0.001-0.627,0.011-0.94
		c0.008-0.285,0.153-0.42,0.466-0.437c0.208-0.011,0.417-0.014,0.626-0.014c0.592-0.002,1.184-0.001,1.776-0.001
		c3.482,0,6.965,0,10.447,0.001c0.348,0,0.697,0.004,1.044,0.019c0.263,0.011,0.401,0.139,0.403,0.378
		c0.004,0.556-0.003,1.112-0.011,1.669c-0.002,0.141-0.129,0.275-0.256,0.281c-0.313,0.013-0.626,0.028-0.938,0.028
		c-3.135,0.002-6.269,0.001-9.403,0.002c-0.313,0.001-0.626,0.015-0.938,0.028c-0.133,0.007-0.268,0.139-0.279,0.266
		c-0.015,0.173-0.033,0.347-0.034,0.521c-0.002,1.984-0.003,3.97,0.001,5.954c0,0.206,0.031,0.413,0.067,0.616
		c0.01,0.054,0.082,0.116,0.14,0.138c0.096,0.036,0.202,0.054,0.305,0.057c0.278,0.009,0.557,0.008,0.835,0.008
		c2.855,0,5.711,0,8.567,0c0.313,0,0.628,0.006,0.94,0.006c0.367,0,0.439,0.194,0.445,0.45c0.012,0.521,0.002,1.044-0.009,1.565
		c-0.004,0.183-0.156,0.341-0.325,0.35c-0.312,0.016-0.625,0.029-0.938,0.029c-2.926,0.002-5.851,0-8.776,0.003
		c-0.312,0-0.625,0.019-0.938,0.032c-0.113,0.006-0.273,0.163-0.282,0.271c-0.014,0.173-0.033,0.347-0.034,0.52
		c-0.002,2.09-0.002,4.18,0,6.269c0,0.173,0.008,0.351,0.046,0.518c0.021,0.092,0.088,0.198,0.21,0.206
		c0.311,0.021,0.623,0.051,0.934,0.051c2.716,0.005,5.433,0.003,8.149,0.003c0.662,0,1.323-0.002,1.985,0.002
		c0.173,0.002,0.35,0.007,0.519,0.042c0.092,0.02,0.189,0.087,0.205,0.209c0.079,0.624,0.069,1.247,0.006,1.871
		c-0.013,0.119-0.156,0.24-0.294,0.247c-0.209,0.011-0.417,0.022-0.626,0.022c-4.353,0.001-8.706,0.002-13.059,0
		c-0.984,0-0.991-0.006-0.991-0.971C88.551,156.019,88.553,152.57,88.552,149.123z"/>
	<path fill="#FFFFFF" d="M39.214,159.587c-0.125-0.507-0.061-0.995-0.067-1.479c-0.003-0.31-0.054-0.626,0.063-0.928
		c0.011-0.028,0.04-0.05,0.063-0.077c0.284-0.027,0.544,0.079,0.808,0.158c2.42,0.729,4.895,1.033,7.419,0.953
		c0.805-0.025,1.595-0.148,2.356-0.409c0.359-0.123,0.718-0.272,1.043-0.467c0.986-0.592,1.548-1.472,1.696-2.617
		c0.072-0.557,0.071-1.112-0.019-1.664c-0.167-1.031-0.704-1.801-1.652-2.263c-0.344-0.169-0.702-0.304-1.084-0.359
		c-0.62-0.091-1.24-0.166-1.87-0.163c-1.218,0.005-2.436-0.014-3.654-0.031c-0.808-0.012-1.586-0.2-2.349-0.45
		c-0.565-0.186-1.09-0.458-1.568-0.813c-0.747-0.556-1.265-1.283-1.608-2.144c-0.168-0.424-0.267-0.865-0.339-1.312
		c-0.186-1.147-0.164-2.293,0.159-3.414c0.327-1.138,0.965-2.073,1.932-2.775c0.596-0.435,1.248-0.757,1.945-0.988
		c1.028-0.344,2.083-0.548,3.166-0.615c1.427-0.089,2.855-0.079,4.279,0.025s2.831,0.341,4.217,0.687
		c0.194,0.049,0.413,0.076,0.602,0.296c0.012,0.188,0.039,0.429,0.04,0.669c0.004,0.486-0.003,0.975-0.009,1.461
		c-0.003,0.246-0.155,0.344-0.423,0.266c-0.701-0.203-1.401-0.412-2.111-0.577c-1.736-0.404-3.501-0.577-5.282-0.53
		c-0.905,0.023-1.806,0.127-2.678,0.385c-0.365,0.107-0.726,0.245-1.066,0.415c-1.232,0.612-1.855,1.638-1.956,2.992
		c-0.036,0.487,0.012,0.969,0.126,1.449c0.274,1.161,1.001,1.886,2.109,2.243c0.564,0.183,1.148,0.271,1.748,0.264
		c0.975-0.011,1.949,0.01,2.924-0.005c0.839-0.013,1.669,0.056,2.494,0.202c0.618,0.109,1.219,0.279,1.793,0.536
		c1.736,0.774,2.695,2.135,2.998,3.984c0.147,0.898,0.157,1.797,0.028,2.703c-0.277,1.93-1.24,3.37-2.977,4.269
		c-0.43,0.223-0.884,0.415-1.347,0.555c-0.833,0.253-1.687,0.401-2.558,0.482c-1.638,0.152-3.272,0.065-4.902-0.062
		c-1.352-0.105-2.69-0.345-4.011-0.66C39.527,159.739,39.375,159.652,39.214,159.587z"/>
	<path fill="#FFFFFF" d="M178.748,160.398c-0.297-0.289-0.376-0.639-0.508-0.957c-0.72-1.735-1.428-3.477-2.142-5.214
		c-0.092-0.225-0.19-0.448-0.298-0.666c-0.065-0.132-0.189-0.21-0.333-0.219c-0.277-0.018-0.557-0.021-0.835-0.021
		c-1.741-0.002-3.482,0.001-5.224-0.003c-0.277-0.001-0.555-0.021-0.832-0.037c-0.122-0.008-0.232-0.182-0.197-0.312
		c0.182-0.671,0.381-1.335,0.709-1.987c0.238-0.02,0.478-0.052,0.716-0.053c1.219-0.006,2.438-0.002,3.657-0.004
		c0.278,0,0.556-0.005,0.835-0.015c0.263-0.01,0.341-0.152,0.24-0.426c-0.048-0.131-0.096-0.262-0.148-0.391
		c-1.178-2.863-2.355-5.728-3.536-8.59c-0.077-0.187-0.151-0.378-0.342-0.577c-0.079,0.106-0.156,0.182-0.198,0.272
		c-0.115,0.253-0.216,0.513-0.321,0.771c-2.375,5.795-4.75,11.59-7.126,17.385c-0.119,0.289-0.247,0.575-0.386,0.855
		c-0.063,0.129-0.188,0.209-0.338,0.209c-0.8,0.003-1.601,0.001-2.4-0.003c-0.13-0.001-0.234-0.177-0.185-0.311
		c0.107-0.293,0.213-0.588,0.335-0.876c1.672-3.939,3.348-7.877,5.022-11.816c1.225-2.882,2.45-5.763,3.676-8.646
		c0.096-0.224,0.182-0.453,0.293-0.668c0.083-0.16,0.231-0.272,0.418-0.274c0.87-0.006,1.74-0.005,2.61,0.002
		c0.185,0.002,0.33,0.104,0.411,0.274c0.09,0.188,0.174,0.379,0.256,0.57c2.966,6.944,5.933,13.888,8.896,20.832
		c0.082,0.191,0.151,0.389,0.221,0.584c0.047,0.131-0.055,0.311-0.176,0.317C180.583,160.453,179.646,160.467,178.748,160.398z"/>
	<path fill="#FFFFFF" d="M149.039,157.267c0.022,0.088,0.065,0.184,0.068,0.28c0.013,0.313,0.016,0.627,0.012,0.94
		c-0.014,1.342,0.159,1.128-1.194,1.484c-1.11,0.293-2.246,0.454-3.396,0.539c-1.326,0.097-2.646,0.08-3.965-0.051
		c-1.533-0.151-3.013-0.521-4.4-1.218c-1.739-0.874-3.041-2.184-3.911-3.923c-0.535-1.068-0.858-2.203-1.062-3.374
		c-0.258-1.484-0.297-2.981-0.199-4.479c0.084-1.288,0.321-2.552,0.785-3.768c0.878-2.3,2.448-3.936,4.7-4.916
		c0.96-0.419,1.965-0.687,2.999-0.865c1.869-0.323,3.748-0.29,5.624-0.149c1.146,0.086,2.271,0.332,3.381,0.636
		c0.196,0.054,0.381,0.148,0.59,0.231c0.079,0.783,0.072,1.542,0.01,2.279c-0.158,0.105-0.29,0.079-0.422,0.035
		c-0.76-0.252-1.527-0.468-2.318-0.609c-1.653-0.294-3.307-0.437-4.986-0.213c-0.796,0.106-1.584,0.226-2.345,0.48
		c-0.33,0.11-0.654,0.237-0.971,0.38c-1.705,0.771-2.861,2.06-3.53,3.797c-0.354,0.917-0.527,1.878-0.606,2.851
		c-0.127,1.571-0.029,3.133,0.37,4.664c0.132,0.503,0.299,1.002,0.509,1.478c0.754,1.697,1.992,2.911,3.712,3.631
		c1.202,0.504,2.463,0.734,3.757,0.8c2.072,0.104,4.096-0.166,6.072-0.807C148.544,157.33,148.765,157.185,149.039,157.267z"/>
	<path fill="#FFFFFF" d="M185.513,149.054c0-3.272,0-6.546,0-9.818c0-0.174-0.001-0.348,0-0.522
		c0.003-0.826-0.013-0.904,0.849-0.905c0.452-0.001,0.905-0.003,1.357,0.003c0.139,0.002,0.276,0.024,0.414,0.041
		c0.122,0.016,0.26,0.159,0.264,0.281c0.01,0.348,0.021,0.696,0.021,1.043c0.001,5.78-0.005,11.561,0.004,17.34
		c0.003,1.72-0.214,1.52,1.472,1.525c2.995,0.009,5.989,0.002,8.984,0.003c0.312,0,0.626,0.001,0.938,0.012
		c0.29,0.009,0.438,0.158,0.441,0.465c0.005,0.521-0.003,1.043-0.015,1.564c-0.003,0.163-0.181,0.327-0.342,0.336
		c-0.174,0.01-0.348,0.016-0.521,0.017c-4.317,0-8.635,0.001-12.952-0.001c-0.208,0-0.417-0.018-0.625-0.032
		c-0.126-0.008-0.249-0.144-0.262-0.28c-0.012-0.139-0.024-0.277-0.025-0.416c-0.004-0.452-0.002-0.905-0.002-1.357
		C185.513,155.252,185.513,152.153,185.513,149.054z"/>
	<path fill="#FFFFFF" d="M155.964,149.153c0,3.308,0,6.615-0.001,9.923c0,0.313-0.004,0.627-0.015,0.939
		c-0.008,0.229-0.17,0.401-0.388,0.405c-0.592,0.01-1.184,0.012-1.775,0.014c-0.14,0-0.278-0.012-0.417-0.023
		c-0.158-0.012-0.319-0.174-0.328-0.349c-0.018-0.348-0.031-0.695-0.031-1.043c-0.002-5.501-0.002-11.002-0.002-16.504
		c0-1.288-0.002-2.576,0.006-3.864c0.001-0.205,0.042-0.411,0.082-0.613c0.012-0.055,0.086-0.1,0.136-0.144
		c0.025-0.022,0.061-0.045,0.092-0.045c0.765-0.005,1.529-0.011,2.293-0.008c0.17,0.001,0.324,0.174,0.33,0.345
		c0.011,0.312,0.018,0.626,0.018,0.939C155.964,142.468,155.964,145.811,155.964,149.153z"/>
	<path fill="#FFFFFF" d="M61.152,149.212c0,3.341,0,6.683,0,10.022c0,1.288,0.062,1.211-1.179,1.199
		c-2.008-0.02-1.729,0.276-1.732-1.686c-0.011-6.543-0.007-13.085-0.002-19.628c0.001-1.368-0.163-1.322,1.281-1.312
		c1.88,0.014,1.62-0.212,1.628,1.59C61.163,142.67,61.152,145.94,61.152,149.212z"/>
	<path fill="#FFFFFF" d="M74.717,207.55c0-1.079-0.002-2.16,0.002-3.239c0-0.172,0.024-0.346,0.059-0.515
		c0.011-0.054,0.082-0.122,0.138-0.137c0.308-0.081,0.621-0.072,0.93-0.01c0.061,0.013,0.132,0.064,0.163,0.119
		c0.119,0.211,0.234,0.426,0.332,0.648c0.675,1.527,1.345,3.058,2.021,4.586c0.112,0.253,0.245,0.497,0.371,0.745
		c0.037,0.072,0.217,0.051,0.261-0.033c0.11-0.216,0.229-0.429,0.325-0.651c0.651-1.501,1.295-3.004,1.946-4.505
		c0.111-0.255,0.23-0.508,0.367-0.748c0.045-0.08,0.154-0.163,0.24-0.171c0.241-0.023,0.485-0.012,0.728-0.007
		c0.126,0.002,0.241,0.135,0.254,0.28c0.01,0.104,0.026,0.207,0.026,0.312c0.001,2.194,0.002,4.389-0.001,6.583
		c0,0.138-0.007,0.285-0.058,0.409c-0.032,0.078-0.142,0.147-0.231,0.175c-0.093,0.028-0.204,0.005-0.307,0
		c-0.122-0.007-0.204-0.101-0.217-0.193c-0.036-0.239-0.05-0.483-0.051-0.727c-0.004-1.497,0-2.995-0.006-4.493
		c0-0.132-0.04-0.265-0.068-0.395c-0.002-0.01-0.076-0.022-0.098-0.007c-0.148,0.105-0.21,0.268-0.279,0.429
		c-0.577,1.343-1.156,2.685-1.739,4.025c-0.166,0.383-0.339,0.764-0.518,1.141c-0.105,0.22-0.311,0.257-0.53,0.251
		c-0.186-0.006-0.346-0.075-0.433-0.241c-0.114-0.215-0.208-0.439-0.307-0.662c-0.631-1.434-1.259-2.869-1.894-4.3
		c-0.082-0.187-0.197-0.359-0.303-0.534c-0.012-0.021-0.061-0.026-0.091-0.023c-0.034,0.003-0.091,0.019-0.094,0.035
		c-0.026,0.17-0.059,0.341-0.06,0.512c-0.005,1.323-0.002,2.647-0.003,3.971c0,0.278,0.001,0.559-0.017,0.836
		c-0.021,0.326-0.201,0.467-0.584,0.37c-0.087-0.021-0.202-0.106-0.223-0.185c-0.046-0.164-0.05-0.343-0.051-0.516
		C74.715,209.641,74.717,208.595,74.717,207.55C74.716,207.55,74.717,207.55,74.717,207.55z"/>
	<path fill="#FFFFFF" d="M120.188,211.406c0.053,0.122,0.077,0.229,0.138,0.307c0.215,0.273,0.445,0.535,0.666,0.805
		c0.246,0.303,0.227,0.395-0.134,0.655c-0.057,0.04-0.112,0.103-0.175,0.11c-0.096,0.013-0.225,0.022-0.287-0.029
		c-0.158-0.133-0.291-0.298-0.429-0.455c-0.367-0.418-0.731-0.838-1.106-1.268c-0.182-0.023-0.352-0.04-0.521-0.068
		c-0.343-0.058-0.689-0.102-1.025-0.188c-1.143-0.295-1.878-1.028-2.203-2.154c-0.307-1.062-0.303-2.137,0.004-3.197
		c0.312-1.081,1.005-1.814,2.098-2.134c1.026-0.298,2.059-0.308,3.091-0.023c1.281,0.351,1.984,1.229,2.241,2.491
		c0.169,0.826,0.17,1.664,0.009,2.493c-0.212,1.089-0.76,1.933-1.812,2.39C120.56,211.22,120.382,211.312,120.188,211.406z
		 M121.596,207.438c-0.008-0.503-0.035-1.018-0.231-1.515c-0.272-0.688-0.736-1.15-1.448-1.385c-0.613-0.201-1.233-0.216-1.851-0.1
		c-1.148,0.217-1.8,0.929-2.013,2.097c-0.127,0.694-0.12,1.383,0.026,2.067c0.214,0.996,0.764,1.683,1.796,1.941
		c0.657,0.164,1.297,0.163,1.949-0.024c0.758-0.218,1.253-0.697,1.537-1.425C121.569,208.563,121.592,208.013,121.596,207.438z"/>
	<path fill="#FFFFFF" d="M102.958,207.498c0-1.01-0.003-2.02,0.002-3.029c0.001-0.208,0.01-0.419,0.052-0.621
		c0.017-0.079,0.126-0.149,0.208-0.199c0.055-0.034,0.135-0.034,0.203-0.034c0.976-0.003,1.951-0.017,2.926,0.002
		c0.309,0.005,0.624,0.066,0.923,0.148c0.934,0.257,1.439,1.167,1.196,2.121c-0.105,0.417-0.312,0.779-0.651,1.045
		c-0.244,0.191-0.517,0.351-0.781,0.517c-0.146,0.092-0.305,0.163-0.456,0.247c-0.074,0.041-0.105,0.202-0.053,0.275
		c0.301,0.427,0.603,0.853,0.906,1.277c0.444,0.624,0.892,1.245,1.334,1.869c0.08,0.112-0.025,0.29-0.172,0.301
		c-0.069,0.005-0.14,0.006-0.208,0.015c-0.461,0.059-0.788-0.107-1.055-0.505c-0.601-0.896-1.239-1.768-1.859-2.65
		c-0.079-0.113-0.149-0.235-0.204-0.362c-0.138-0.32,0.009-0.663,0.338-0.737c0.411-0.094,0.804-0.228,1.158-0.456
		c0.407-0.262,0.64-0.635,0.663-1.122c0.007-0.137-0.019-0.276-0.046-0.411c-0.06-0.295-0.232-0.505-0.516-0.606
		c-0.163-0.059-0.334-0.13-0.503-0.132c-0.695-0.012-1.391-0.001-2.086,0.007c-0.127,0.002-0.271,0.143-0.278,0.265
		c-0.017,0.277-0.036,0.555-0.037,0.833c-0.004,1.497-0.002,2.995-0.002,4.493c0,0.278-0.002,0.557-0.003,0.836
		c-0.001,0.512-0.23,0.622-0.768,0.484c-0.08-0.021-0.173-0.131-0.192-0.215c-0.037-0.167-0.037-0.346-0.037-0.519
		C102.957,209.589,102.958,208.544,102.958,207.498z"/>
	<path fill="#FFFFFF" d="M135.757,206.47c0,0.73,0.005,1.462-0.003,2.192c-0.003,0.384-0.059,0.758-0.198,1.124
		c-0.265,0.696-0.741,1.181-1.432,1.425c-1.052,0.372-2.123,0.374-3.173,0c-0.729-0.26-1.227-0.777-1.461-1.527
		c-0.104-0.334-0.189-0.67-0.189-1.022c0.001-1.532-0.001-3.063,0.004-4.596c0-0.099,0.043-0.199,0.072-0.297
		c0.009-0.031,0.033-0.069,0.062-0.082c0.233-0.106,0.474-0.1,0.707-0.009c0.052,0.021,0.104,0.107,0.109,0.169
		c0.023,0.242,0.039,0.485,0.04,0.728c0.004,1.254,0.003,2.507,0.002,3.76c0,0.386,0.035,0.762,0.177,1.127
		c0.202,0.521,0.557,0.867,1.088,1.045c0.614,0.205,1.223,0.219,1.846,0.035c0.795-0.235,1.209-0.78,1.318-1.575
		c0.037-0.274,0.034-0.556,0.035-0.834c0.004-1.044,0.002-2.089,0.002-3.133c0-0.243,0.004-0.487,0.001-0.731
		c-0.008-0.605,0.17-0.718,0.771-0.619c0.057,0.009,0.13,0.068,0.147,0.12c0.041,0.13,0.074,0.269,0.075,0.403
		c0.008,0.767,0.004,1.532,0.004,2.299C135.759,206.47,135.758,206.47,135.757,206.47z"/>
	<path fill="#FFFFFF" d="M142.674,207.529c0-1.01-0.002-2.019,0.002-3.027c0.001-0.208,0.021-0.416,0.035-0.623
		c0.008-0.12,0.1-0.179,0.189-0.226c0.06-0.03,0.135-0.037,0.204-0.037c1.426-0.003,2.853-0.004,4.279-0.001
		c0.234,0.001,0.371,0.151,0.385,0.396c0.012,0.208-0.097,0.362-0.272,0.373c-0.242,0.013-0.485,0.024-0.729,0.025
		c-0.766,0.004-1.531-0.001-2.297,0.004c-0.173,0.002-0.351,0.007-0.517,0.048c-0.084,0.021-0.159,0.116-0.216,0.194
		c-0.037,0.051-0.044,0.133-0.044,0.2c-0.004,0.591-0.008,1.183,0.001,1.773c0.004,0.293,0.151,0.432,0.462,0.438
		c0.521,0.011,1.044,0.007,1.565,0.013c0.521,0.007,1.043,0.014,1.563,0.028c0.185,0.005,0.298,0.154,0.289,0.355
		c-0.008,0.197-0.131,0.376-0.278,0.387c-0.207,0.015-0.416,0.027-0.624,0.028c-0.8,0.005-1.601,0.001-2.401,0.008
		c-0.137,0.002-0.276,0.028-0.407,0.068c-0.057,0.018-0.099,0.094-0.138,0.15c-0.019,0.025-0.02,0.067-0.02,0.102
		c0,0.694-0.002,1.389,0.003,2.084c0.001,0.124,0.145,0.273,0.262,0.284c0.207,0.02,0.415,0.041,0.623,0.042
		c0.801,0.006,1.601,0,2.401,0.006c0.207,0.001,0.415,0.023,0.623,0.041c0.11,0.01,0.224,0.168,0.22,0.305
		c-0.001,0.068,0.006,0.149-0.025,0.203c-0.05,0.083-0.116,0.175-0.199,0.215c-0.088,0.042-0.203,0.04-0.307,0.04
		c-1.357,0.002-2.714,0.002-4.071-0.001c-0.104,0-0.211-0.014-0.308-0.046c-0.097-0.03-0.194-0.086-0.209-0.203
		c-0.022-0.172-0.043-0.345-0.044-0.517C142.672,209.616,142.674,208.572,142.674,207.529z"/>
	<path fill="#FFFFFF" d="M43.732,207.443c0-1.044-0.003-2.088,0.003-3.131c0.001-0.171,0.034-0.344,0.072-0.512
		c0.013-0.056,0.084-0.109,0.142-0.14c0.059-0.031,0.133-0.043,0.2-0.043c1.426-0.001,2.852-0.001,4.278,0.007
		c0.094,0.001,0.196,0.06,0.28,0.114c0.08,0.052,0.109,0.4,0.031,0.497c-0.057,0.071-0.161,0.135-0.25,0.145
		c-0.241,0.026-0.486,0.027-0.729,0.028c-0.695,0.003-1.391-0.001-2.086,0.003c-0.208,0.001-0.417,0.015-0.625,0.029
		c-0.125,0.008-0.264,0.145-0.275,0.271c-0.061,0.691-0.068,1.385,0.006,2.078c0.013,0.12,0.158,0.249,0.289,0.258
		c0.208,0.015,0.416,0.028,0.625,0.029c0.73,0.004,1.46,0,2.191,0.006c0.172,0.002,0.346,0.021,0.515,0.053
		c0.109,0.021,0.159,0.12,0.173,0.228c0.041,0.305-0.091,0.489-0.368,0.5c-0.278,0.013-0.556,0.015-0.834,0.016
		c-0.626,0.003-1.252-0.001-1.878,0.004c-0.173,0.002-0.352,0.007-0.517,0.05c-0.079,0.021-0.184,0.132-0.192,0.211
		c-0.077,0.727-0.077,1.455-0.005,2.183c0.012,0.119,0.159,0.251,0.289,0.26c0.208,0.016,0.416,0.031,0.625,0.032
		c0.765,0.004,1.53-0.001,2.295,0.003c0.208,0.001,0.416,0.016,0.624,0.031c0.174,0.013,0.284,0.171,0.271,0.375
		c-0.015,0.238-0.158,0.394-0.391,0.394c-1.426,0.005-2.852,0.003-4.277,0.002c-0.035,0-0.069-0.007-0.104-0.01
		c-0.185-0.016-0.344-0.152-0.353-0.319c-0.013-0.243-0.022-0.486-0.023-0.729c-0.002-0.974-0.001-1.948-0.001-2.922
		C43.731,207.443,43.732,207.443,43.732,207.443z"/>
	<path fill="#FFFFFF" d="M159.587,204.701c-0.301-0.06-0.611-0.104-0.912-0.185c-0.615-0.164-1.241-0.145-1.867-0.131
		c-0.355,0.008-0.692,0.109-1.004,0.262c-0.4,0.195-0.646,0.525-0.662,0.988c-0.006,0.172-0.003,0.349,0.022,0.519
		c0.057,0.378,0.287,0.628,0.634,0.765c0.327,0.129,0.673,0.16,1.025,0.162c0.451,0.003,0.904,0.026,1.356,0.035
		c0.322,0.008,0.616,0.115,0.895,0.261c0.527,0.278,0.844,0.72,0.911,1.315c0.031,0.274,0.034,0.556,0.017,0.833
		c-0.047,0.721-0.419,1.234-1.054,1.566c-0.376,0.197-0.784,0.298-1.197,0.343c-1.048,0.112-2.085,0.011-3.107-0.236
		c-0.138-0.033-0.231-0.153-0.247-0.305c-0.011-0.103-0.009-0.208-0.003-0.312c0.009-0.163,0.131-0.276,0.259-0.249
		c0.408,0.084,0.812,0.194,1.225,0.247c0.447,0.057,0.9,0.067,1.353,0.083c0.354,0.013,0.692-0.088,1.012-0.227
		c0.447-0.194,0.718-0.537,0.757-1.038c0.008-0.104,0.01-0.209,0.008-0.313c-0.005-0.629-0.397-1.043-1.019-1.121
		c-0.48-0.061-0.973-0.047-1.459-0.04c-0.461,0.006-0.907-0.066-1.325-0.245c-0.583-0.249-0.961-0.694-1.038-1.334
		c-0.042-0.342-0.022-0.693-0.006-1.039c0.017-0.324,0.179-0.598,0.376-0.846c0.222-0.281,0.514-0.478,0.845-0.593
		c0.326-0.114,0.667-0.222,1.008-0.253c1.045-0.095,2.088-0.059,3.108,0.221c0.143,0.039,0.228,0.15,0.252,0.3
		C159.783,204.364,159.756,204.458,159.587,204.701z"/>
	<path fill="#FFFFFF" d="M94.703,209.059c-0.438-0.138-0.788-0.082-1.133-0.092c-0.348-0.01-0.696-0.004-1.043-0.011
		c-0.265-0.006-0.335-0.123-0.253-0.424c0.027-0.098,0.08-0.188,0.127-0.297c0.573-0.162,1.177,0.015,1.742-0.126
		c0.021-0.092,0.064-0.167,0.046-0.221c-0.326-0.99-0.728-1.948-1.188-2.883c-0.011-0.023-0.056-0.032-0.086-0.045
		c-0.079-0.032-0.141-0.01-0.178,0.066c-0.062,0.124-0.128,0.246-0.181,0.374c-0.384,0.933-0.764,1.866-1.146,2.8
		c-0.342,0.836-0.685,1.674-1.029,2.51c-0.066,0.16-0.137,0.319-0.216,0.474c-0.088,0.173-0.247,0.232-0.43,0.238
		c-0.07,0.003-0.14,0.004-0.209,0.002c-0.272-0.007-0.398-0.165-0.31-0.393c0.038-0.097,0.083-0.191,0.124-0.287
		c0.911-2.145,1.821-4.289,2.733-6.434c0.068-0.159,0.145-0.316,0.222-0.471c0.067-0.136,0.184-0.208,0.331-0.217
		c0.173-0.012,0.348-0.013,0.521-0.01c0.187,0.004,0.334,0.082,0.419,0.256c0.061,0.125,0.12,0.251,0.174,0.378
		c0.929,2.175,1.858,4.35,2.784,6.525c0.054,0.126,0.11,0.264,0.11,0.396c0,0.078-0.097,0.208-0.171,0.224
		c-0.166,0.036-0.344,0.024-0.517,0.017c-0.149-0.007-0.267-0.094-0.326-0.227c-0.171-0.38-0.329-0.767-0.494-1.149
		C94.99,209.714,94.851,209.396,94.703,209.059z"/>
	<path fill="#FFFFFF" d="M55.507,207.411c0-0.976-0.002-1.95,0.001-2.926c0-0.208,0.013-0.417,0.037-0.624
		c0.007-0.062,0.055-0.144,0.107-0.17c0.229-0.116,0.472-0.105,0.706-0.017c0.051,0.02,0.103,0.108,0.108,0.169
		c0.023,0.277,0.041,0.556,0.041,0.833c0.003,1.603,0,3.204,0.003,4.806c0,0.277,0.019,0.555,0.036,0.832
		c0.007,0.123,0.149,0.257,0.279,0.267c0.208,0.018,0.416,0.037,0.624,0.037c0.766,0.005,1.532,0,2.298,0.005
		c0.208,0.002,0.416,0.025,0.623,0.043c0.108,0.009,0.22,0.178,0.218,0.316c-0.004,0.255-0.134,0.422-0.348,0.435
		c-0.139,0.009-0.278,0.016-0.417,0.016c-1.149,0.001-2.298,0.003-3.447-0.002c-0.208-0.001-0.417-0.018-0.621-0.055
		c-0.094-0.018-0.194-0.089-0.206-0.208c-0.02-0.207-0.041-0.414-0.042-0.622C55.505,209.5,55.507,208.456,55.507,207.411z"/>
	<path fill="#FFFFFF" d="M146.425,201.552c0,0.1,0.028,0.191-0.004,0.228c-0.304,0.325-0.605,0.654-0.935,0.953
		c-0.156,0.141-0.379,0.145-0.589,0.083c-0.073-0.021-0.163-0.189-0.124-0.252c0.167-0.26,0.332-0.521,0.504-0.776
		c0.126-0.187,0.31-0.265,0.531-0.259C146.013,201.534,146.216,201.544,146.425,201.552z"/>
	<polygon fill="#FFFFFF" points="135.201,97.062 135.239,97.019 135.216,97.074 	"/>
	<path fill="#FFFFFF" d="M77.75,66.916c0.033-0.154,0.085-0.459,0.168-0.755c0.071-0.253,0.347-0.346,0.587-0.203
		c0.145,0.086,0.294,0.188,0.397,0.318c0.148,0.188,0.274,0.398,0.376,0.615c0.146,0.312,0.277,0.632,0.389,0.958
		c0.394,1.15,0.486,0.913-0.583,1.404c-0.093,0.042-0.194,0.07-0.292,0.101c-0.118,0.037-0.297-0.032-0.363-0.14
		C78.032,68.554,77.754,67.856,77.75,66.916z"/>
</g>
</svg>
